<svg xmlns="http://www.w3.org/2000/svg" viewBox="0 0 520 120" fill="none">
  <!-- "Car" handwritten -->
  <path d="M14,85 C14,48 28,20 52,18 C70,16 84,28 82,48 C80,62 70,70 58,68"
        stroke="currentColor" stroke-width="6" stroke-linecap="round" stroke-linejoin="round"/>
  <path d="M100,68 C96,55 90,38 100,28 C108,20 118,22 122,34 C126,46 120,58 112,64 C108,68 104,70 100,72 C100,80 104,90 110,96"
        stroke="currentColor" stroke-width="6" stroke-linecap="round" stroke-linejoin="round"/>
  <path d="M136,30 L136,70 M136,42 C144,34 155,28 164,32 C172,36 174,48 168,58 C162,68 150,72 144,70"
        stroke="currentColor" stroke-width="6" stroke-linecap="round" stroke-linejoin="round"/>

  <!-- Linhas de velocidade (antes do olho) -->
  <line x1="186" y1="42" x2="210" y2="42" stroke="currentColor" stroke-width="4.5" stroke-linecap="round"/>
  <line x1="190" y1="52" x2="210" y2="52" stroke="currentColor" stroke-width="4.5" stroke-linecap="round"/>
  <line x1="188" y1="62" x2="210" y2="62" stroke="currentColor" stroke-width="4.5" stroke-linecap="round"/>

  <!-- "o" → olho: retângulo arredondado -->
  <rect x="213" y="18" width="120" height="78" rx="22" ry="22"
        stroke="currentColor" stroke-width="6" fill="none"/>

  <!-- Pálpebra superior -->
  <path d="M234,57 C254,28 320,28 340,57"
        stroke="currentColor" stroke-width="4.5" stroke-linecap="round" fill="none"/>
  <!-- Pálpebra inferior -->
  <path d="M234,57 C254,82 320,82 340,57"
        stroke="currentColor" stroke-width="4.5" stroke-linecap="round" fill="none"/>
  <!-- Íris -->
  <circle cx="287" cy="57" r="16" stroke="currentColor" stroke-width="4" fill="none"/>

  <!-- Cílios superiores -->
  <line x1="248" y1="43" x2="244" y2="32" stroke="currentColor" stroke-width="3.5" stroke-linecap="round"/>
  <line x1="264" y1="34" x2="262" y2="23" stroke="currentColor" stroke-width="3.5" stroke-linecap="round"/>
  <line x1="287" y1="30" x2="287" y2="19" stroke="currentColor" stroke-width="3.5" stroke-linecap="round"/>
  <line x1="310" y1="34" x2="312" y2="23" stroke="currentColor" stroke-width="3.5" stroke-linecap="round"/>
  <line x1="326" y1="43" x2="330" y2="32" stroke="currentColor" stroke-width="3.5" stroke-linecap="round"/>

  <!-- "L" -->
  <path d="M348,22 L348,90 L390,90"
        stroke="currentColor" stroke-width="6" stroke-linecap="round" stroke-linejoin="round"/>
  <!-- Gancho do L -->
  <path d="M348,90 C348,100 354,108 360,110"
        stroke="currentColor" stroke-width="5" stroke-linecap="round"/>
</svg>
